<svg xmlns="http://www.w3.org/2000/svg" viewBox="0 0 5274.26 1670.12"><defs><style>.cls-1,.cls-2{fill:#8d1f21;}.cls-1,.cls-3{fill-rule:evenodd;}.cls-3{fill:#fffffe;}</style></defs><g id="Слой_2" data-name="Слой 2"><g id="Слой_1-2" data-name="Слой 1"><path id="Fill-37" class="cls-1" d="M1740.73,457.28V610.42c30.56-5.29,68.64-17,88.37-40.47,7.7-9.16,17.33-25,12.21-56.87-6.75-42-61.39-53.24-100.58-55.8m0,244.58V898.62c73.56-.9,155.64-6.75,188.13-41.52,8.06-8.63,18.51-24.08,16.1-58.52-1.48-21.35-9.75-37.79-26-51.74-42.63-36.58-125.71-44.84-178.24-45m-27.88,285.83h-16.66a44.46,44.46,0,0,1-44.37-44.46V413A44.45,44.45,0,0,1,1692,368.71c79-7.7,218,11.06,237.14,130.25,8,49.68-3.14,94.1-32.16,128.48q-2.79,3.3-5.75,6.43c31.17,10,61.2,24.48,85.69,45.5,34,29.21,53.66,68.29,56.79,113,3.56,51.12-9.85,93.32-39.85,125.42-62.2,66.56-180.82,69.88-281,69.88"/><path id="Fill-38" class="cls-1" d="M2630.33,968.43a44.46,44.46,0,0,1-42.1-58.75l173.48-511.13a44.45,44.45,0,0,1,84.61,1.3L3002.5,911a44.46,44.46,0,0,1-85,26L2801.58,557.71,2672.42,938.25a44.46,44.46,0,0,1-42.09,30.18"/><path id="Fill-39" class="cls-1" d="M5272.94,913.23,5145.8,402.11a44.46,44.46,0,0,0-42.8-33.72h-.31a44.47,44.47,0,0,0-43,33.13l-92,349.14-82.54-348.07a44.46,44.46,0,0,0-42.71-34.2h-.56a44.47,44.47,0,0,0-43,33.13L4664.26,912.64a44.47,44.47,0,1,0,86,22.65L4839.63,596l80.21,338.26a44.41,44.41,0,0,0,46,34.07c.72,0,1.45.15,2.16.15a44.5,44.5,0,0,0,43-33.15l90.41-343.23,85.23,342.64a44.46,44.46,0,0,0,86.29-21.47"/><path id="Fill-40" class="cls-1" d="M3143,968.43a44.47,44.47,0,0,1-42.11-58.75l173.49-511.13a44.46,44.46,0,0,1,84.62,1.3L3515.16,911a44.46,44.46,0,0,1-85,26L3314.23,557.71,3185.08,938.25a44.47,44.47,0,0,1-42.1,30.18"/><path id="Fill-41" class="cls-1" d="M4040.15,898,3869,659.76l116.67-226.5a44.46,44.46,0,1,0-79-40.72l-179.28,348V412.9a44.46,44.46,0,0,0-88.92,0V924a44.45,44.45,0,0,0,84,20.36l100.86-195.8,144.6,201.34a44.47,44.47,0,0,0,72.22-51.9"/><path id="Fill-42" class="cls-1" d="M4341.67,457.35c-84.13,0-152.59,94.69-152.59,211.08s68.46,211.08,152.59,211.08,152.6-94.69,152.6-211.08-68.45-211.08-152.6-211.08m0,511.07c-133.16,0-241.5-134.57-241.5-300s108.34-300,241.5-300,241.52,134.57,241.52,300-108.35,300-241.52,300"/><path id="Fill-43" class="cls-1" d="M2257.43,632.44c-1-.7-2-1.32-3-1.93,1,.6,2,1.21,3,1.93m-4.22-2.72a42.76,42.76,0,0,0-4.34-2.16,42.76,42.76,0,0,1,4.34,2.16m8.23,6c-.72-.67-1.49-1.25-2.25-1.86.76.6,1.51,1.18,2.25,1.86m-25.33-11.52a43,43,0,0,1,4.5.72,43,43,0,0,0-4.5-.72m-4.81-255.77a265,265,0,0,0-64.42,7.94,44.46,44.46,0,1,0,21.65,86.24,176.2,176.2,0,0,1,42.77-5.27c91.9,0,168.88,71.56,187.45,166.71-78.37.17-172,.28-184.34,0a44.45,44.45,0,0,0-37.1,73c13.3,15.78,28.83,15.88,43.86,16,6.47,0,15.68.07,26.71.08h80.21l70.62-.14c-18.63,95.07-95.56,166.54-187.41,166.54a175.29,175.29,0,0,1-53.49-8.33,44.46,44.46,0,1,0-27.07,84.7,264.39,264.39,0,0,0,80.56,12.54c154.76,0,280.66-134.57,280.66-300s-125.9-300-280.66-300"/><polygon id="Path" class="cls-2" points="0 0 1298.96 0 1298.96 1670.12 0 1670.12 0 0"/><path id="Fill-44" class="cls-3" d="M965.28,200.06a43.57,43.57,0,1,0-87.12,1.78l3.18,156.07c-48.21-4.71-208.16-16.46-423.88,8a43.57,43.57,0,0,0,9.82,86.59c228.46-25.92,394.93-9.12,415.85-6.79l18,883.8c-209.72,27.43-416.8,12.8-501.67,4.52,7.34-126.8,27.79-508.06,20.63-701.45A43.58,43.58,0,0,0,333,635.82c8.33,224.81-22.68,729.21-23,734.28a43.56,43.56,0,0,0,37.67,45.9c7.82,1.06,127.72,16.84,289.64,16.84,95.18,0,204.91-5.46,314.86-22.57a43.56,43.56,0,0,0,36.83-44Z"/><path id="Fill-45" class="cls-3" d="M572.26,566H739.32a49.24,49.24,0,0,1,49.15,46.44l.69,114.44a49.22,49.22,0,0,1-49.15,52H572.26A49.23,49.23,0,0,1,523,729.67V615.23A49.23,49.23,0,0,1,572.26,566"/><path id="Fill-46" class="cls-3" d="M789.24,946.26a28.57,28.57,0,1,1,28.57-28.57,28.57,28.57,0,0,1-28.57,28.57"/><path id="Fill-47" class="cls-3" d="M659,946.26a28.57,28.57,0,1,1,28.57-28.57A28.57,28.57,0,0,1,659,946.26"/><path id="Fill-48" class="cls-3" d="M528.84,946.26a28.57,28.57,0,1,1,28.57-28.57,28.57,28.57,0,0,1-28.57,28.57"/><path id="Fill-49" class="cls-3" d="M789.24,1076.45a28.57,28.57,0,1,1,28.57-28.56,28.58,28.58,0,0,1-28.57,28.56"/><path id="Fill-50" class="cls-3" d="M659,1076.45a28.57,28.57,0,1,1,28.57-28.56A28.58,28.58,0,0,1,659,1076.45"/><path id="Fill-51" class="cls-3" d="M528.84,1076.45a28.57,28.57,0,1,1,28.57-28.56,28.58,28.58,0,0,1-28.57,28.56"/><path id="Fill-52" class="cls-3" d="M789.24,1206.65a28.57,28.57,0,1,1,28.57-28.56,28.58,28.58,0,0,1-28.57,28.56"/><path id="Fill-53" class="cls-3" d="M659,1206.65a28.57,28.57,0,1,1,28.57-28.56A28.58,28.58,0,0,1,659,1206.65"/><path id="Fill-54" class="cls-3" d="M528.84,1206.65a28.57,28.57,0,1,1,28.57-28.56,28.58,28.58,0,0,1-28.57,28.56"/><path id="Shape" class="cls-2" d="M1697,1362.52l-45.59-171.8h23.32l26.13,112.62q4.23,17.69,7.27,35.15,6.55-27.54,7.73-31.75l32.7-116H1776l24.61,87a461.33,461.33,0,0,1,13.36,60.82q3.29-16.29,8.55-37.38l27-110.39h22.85l-47.11,171.8h-21.92l-36.32-131q-4.56-16.41-5.39-20.16-2.68,11.83-5,20.16l-36.44,130.9Zm357.26,0v-171.8h124.22V1211H2077v52.62h95v20.16h-95v58.47h105.47v20.28Zm319,0v-171.8H2396v151.52h84.61v20.28Zm293.8,0v-171.8h22.73v151.52h84.61v20.28Zm293.79,0v-171.8h22.74v85.19l85.31-85.19h30.82l-72.07,69.61,75.24,102.19h-30l-61.17-87L2983.58,1303v59.53Zm314.42-83.68q0-42.77,23-67t59.3-24.2q23.79,0,42.89,11.37a74.32,74.32,0,0,1,29.12,31.7q10,20.32,10,46.11,0,26.13-10.55,46.76t-29.88,31.23a85.46,85.46,0,0,1-41.72,10.61q-24.26,0-43.36-11.72a75.35,75.35,0,0,1-28.94-32,97,97,0,0,1-9.86-42.86Zm23.44.36q0,31,16.7,48.92t41.9,17.87q25.66,0,42.24-18t16.58-51.21q0-21-7.09-36.63a54.42,54.42,0,0,0-20.74-24.25,56.16,56.16,0,0,0-30.64-8.62,58.2,58.2,0,0,0-41.55,16.58q-17.4,16.55-17.4,55.34Zm329.78,83.32v-171.8h34.21l40.67,121.64q5.63,17,8.2,25.43,2.93-9.37,9.14-27.54l41.13-119.53h30.59v171.8h-21.91V1218.73l-49.93,143.79h-20.5l-49.69-146.25v146.25Zm352.39-45,22.14-1.88q2.47,16.17,11.43,24.32a31,31,0,0,0,21.62,8.14,33.64,33.64,0,0,0,25.78-11.48q10.54-11.49,10.55-30.47,0-18-10.14-28.48t-26.54-10.43a36.87,36.87,0,0,0-18.4,4.63,35.76,35.76,0,0,0-12.89,12l-19.8-2.57,16.64-88.25h85.43v20.16h-68.56l-9.26,46.17q15.48-10.79,32.46-10.78,22.5,0,38,15.59t15.47,40.07q0,23.33-13.59,40.32-16.53,20.85-45.12,20.86-23.43,0-38.26-13.13t-17-34.79Zm404.65,24.72v20.28H4272a37.2,37.2,0,0,1,2.46-14.65,77.32,77.32,0,0,1,13.89-22.85q9.54-11.25,27.59-26,28-23,37.85-36.39t9.85-25.37a28.18,28.18,0,0,0-9-21.15q-9-8.61-23.38-8.61-15.23,0-24.37,9.14t-9.26,25.31L4276,1239.7q2.23-24.26,16.76-37t39-12.71q24.73,0,39.14,13.71t14.42,34a51.63,51.63,0,0,1-4.22,20.28q-4.22,10-14,21t-32.52,30.24q-19,15.93-24.38,21.62a70.26,70.26,0,0,0-8.91,11.42Zm194.77,20.28v-24h24v24Zm224.08,0v-171.8h76.17q23,0,34.92,4.63a38.2,38.2,0,0,1,19.1,16.35,48.73,48.73,0,0,1,7.15,25.89q0,18.29-11.84,30.82t-36.56,15.94a59.68,59.68,0,0,1,13.71,8.56,118.26,118.26,0,0,1,18.87,22.85l29.88,46.76h-28.59l-22.74-35.75q-10-15.46-16.4-23.67t-11.55-11.48a34,34,0,0,0-10.37-4.57,67.82,67.82,0,0,0-12.65-.82H4827.1v76.29Zm22.73-96H4876q15.59,0,24.37-3.22a26,26,0,0,0,13.33-10.3,27.86,27.86,0,0,0,4.57-15.41,25.6,25.6,0,0,0-8.85-20q-8.85-7.86-27.95-7.86H4827.1Zm423.29-75.8h22.73V1290q0,25.89-5.86,41.13t-21.15,24.79q-15.28,9.54-40.14,9.55-24.14,0-39.49-8.32a47.54,47.54,0,0,1-21.91-24.09Q5138,1317.3,5138,1290v-99.26h22.73v99.14q0,22.38,4.16,33a31.57,31.57,0,0,0,14.3,16.35q10.13,5.73,24.78,5.74,25.08,0,35.74-11.37t10.67-43.71Z"/></g></g></svg>